<svg width="181" height="22" viewBox="0 0 181 22" fill="none" xmlns="http://www.w3.org/2000/svg">
<circle cx="11" cy="11" r="8.25" fill="#2B5EC3" stroke="white" stroke-width="5.5"/>
<circle cx="22" cy="11" r="8.25" fill="#2B5EC3" stroke="white" stroke-width="5.5"/>
<path d="M52.55 21.84C50.35 21.84 48.37 21.38 46.61 20.46C44.87 19.52 43.5 18.22 42.5 16.56C41.5 14.9 41 13.02 41 10.92C41 8.82 41.5 6.94 42.5 5.28C43.5 3.62 44.87 2.33 46.61 1.41C48.37 0.47 50.35 0 52.55 0C54.47 0 56.2 0.34 57.74 1.02C59.28 1.7 60.56 2.68 61.58 3.96L57.8 7.38C56.44 5.74 54.79 4.92 52.85 4.92C51.71 4.92 50.69 5.17 49.79 5.67C48.91 6.17 48.22 6.88 47.72 7.8C47.24 8.7 47 9.74 47 10.92C47 12.1 47.24 13.15 47.72 14.07C48.22 14.97 48.91 15.67 49.79 16.17C50.69 16.67 51.71 16.92 52.85 16.92C54.79 16.92 56.44 16.1 57.8 14.46L61.58 17.88C60.56 19.16 59.28 20.14 57.74 20.82C56.2 21.5 54.47 21.84 52.55 21.84Z" fill="white"/>
<path d="M77.379 21.84C75.159 21.84 73.159 21.37 71.379 20.43C69.619 19.49 68.229 18.19 67.209 16.53C66.209 14.87 65.709 13 65.709 10.92C65.709 8.84 66.209 6.97 67.209 5.31C68.229 3.65 69.619 2.35 71.379 1.41C73.159 0.47 75.159 0 77.379 0C79.599 0 81.589 0.47 83.349 1.41C85.129 2.35 86.519 3.65 87.519 5.31C88.539 6.97 89.049 8.84 89.049 10.92C89.049 13 88.539 14.87 87.519 16.53C86.519 18.19 85.129 19.49 83.349 20.43C81.589 21.37 79.599 21.84 77.379 21.84ZM77.379 16.92C78.439 16.92 79.399 16.67 80.259 16.17C81.119 15.67 81.799 14.97 82.299 14.07C82.799 13.15 83.049 12.1 83.049 10.92C83.049 9.74 82.799 8.7 82.299 7.8C81.799 6.88 81.119 6.17 80.259 5.67C79.399 5.17 78.439 4.92 77.379 4.92C76.319 4.92 75.359 5.17 74.499 5.67C73.639 6.17 72.959 6.88 72.459 7.8C71.959 8.7 71.709 9.74 71.709 10.92C71.709 12.1 71.959 13.15 72.459 14.07C72.959 14.97 73.639 15.67 74.499 16.17C75.359 16.67 76.319 16.92 77.379 16.92Z" fill="white"/>
<path d="M115.14 0.42V21.42H110.25L100.98 10.23V21.42H95.1601V0.42H100.05L109.32 11.61V0.42H115.14Z" fill="white"/>
<path d="M143.571 0.42L134.571 21.42H128.721L119.751 0.42H126.171L131.871 14.1L137.691 0.42H143.571Z" fill="white"/>
<path d="M147.801 0.42H153.741V21.42H147.801V0.42Z" fill="white"/>
<path d="M180.947 0.42V21.42H176.057L166.787 10.23V21.42H160.967V0.42H165.857L175.127 11.61V0.42H180.947Z" fill="white"/>
</svg>
